<svg width="128" height="128" viewBox="0 0 128 128" fill="none" xmlns="http://www.w3.org/2000/svg">
<circle cx="64" cy="64" r="64" fill="#D9D9D9"/>
<path d="M74.7171 32.9131C75.2152 33.1943 75.7191 33.4492 76.2288 33.6777C76.7445 33.9004 77.2777 34.0908 77.8284 34.249C78.3792 34.4014 78.9564 34.5186 79.5599 34.6006C80.1693 34.6826 80.8167 34.7236 81.5023 34.7236C82.3284 34.7236 83.0316 34.6709 83.6117 34.5654C84.1917 34.4541 84.6634 34.3047 85.0267 34.1172C85.3958 33.9238 85.6624 33.6953 85.8265 33.4316C85.9964 33.168 86.0814 32.8809 86.0814 32.5703C86.0814 32.0723 85.8734 31.6797 85.4574 31.3926C85.0413 31.0996 84.3997 30.9531 83.5326 30.9531C83.1517 30.9531 82.7503 30.9795 82.3284 31.0322C81.9066 31.0791 81.4788 31.1318 81.0452 31.1904C80.6175 31.249 80.1927 31.3047 79.7708 31.3574C79.3548 31.4043 78.9622 31.4277 78.5931 31.4277C77.9779 31.4277 77.3861 31.3486 76.8177 31.1904C76.2552 31.0322 75.7542 30.7949 75.3148 30.4785C74.8812 30.1621 74.5355 29.7666 74.2777 29.292C74.0199 28.8174 73.8909 28.2637 73.8909 27.6309C73.8909 27.2559 73.9408 26.8838 74.0404 26.5146C74.1458 26.1455 74.3099 25.7939 74.5326 25.46C74.7611 25.1201 75.054 24.8066 75.4115 24.5195C75.7689 24.2266 76.1995 23.9746 76.7034 23.7637C77.2132 23.5527 77.7992 23.3887 78.4613 23.2715C79.1292 23.1484 79.888 23.0869 80.7376 23.0869C81.3529 23.0869 81.971 23.1221 82.5921 23.1924C83.2132 23.2568 83.8167 23.3506 84.4027 23.4736C84.9945 23.5967 85.5628 23.7461 86.1077 23.9219C86.6527 24.0918 87.1595 24.2822 87.6283 24.4932L86.4066 26.7432C86.0199 26.5732 85.6038 26.418 85.1585 26.2773C84.7132 26.1309 84.2474 26.0049 83.7611 25.8994C83.2747 25.7939 82.7708 25.7119 82.2493 25.6533C81.7337 25.5889 81.2064 25.5566 80.6673 25.5566C79.8997 25.5566 79.2669 25.6123 78.7689 25.7236C78.2767 25.835 77.8841 25.9785 77.5911 26.1543C77.2982 26.3242 77.0931 26.5176 76.9759 26.7344C76.8646 26.9453 76.8089 27.1562 76.8089 27.3672C76.8089 27.7773 76.9935 28.1143 77.3626 28.3779C77.7318 28.6357 78.2943 28.7646 79.0501 28.7646C79.3548 28.7646 79.7034 28.7441 80.096 28.7031C80.4945 28.6562 80.9105 28.6064 81.3441 28.5537C81.7835 28.501 82.2288 28.4541 82.68 28.4131C83.137 28.3662 83.5794 28.3428 84.0072 28.3428C84.8158 28.3428 85.5306 28.4336 86.1517 28.6152C86.7786 28.7969 87.3031 29.0576 87.7249 29.3975C88.1468 29.7314 88.4661 30.1387 88.6829 30.6191C88.8997 31.0938 89.0081 31.627 89.0081 32.2188C89.0081 33.0098 88.8236 33.7158 88.4544 34.3369C88.0911 34.9521 87.5697 35.4736 86.89 35.9014C86.2161 36.3232 85.4017 36.6455 84.4466 36.8682C83.4915 37.085 82.4281 37.1934 81.2562 37.1934C80.4827 37.1934 79.7269 37.1436 78.9886 37.0439C78.2503 36.9502 77.5413 36.8154 76.8617 36.6396C76.1878 36.458 75.5433 36.2441 74.9281 35.998C74.3187 35.7461 73.7533 35.4707 73.2318 35.1719L74.7171 32.9131ZM96.7601 23.2627H99.7132L106.358 37H103.431L102.332 34.6885H94.3079L93.2445 37H90.3089L96.7601 23.2627ZM101.234 32.3945L98.263 26.1543L95.3714 32.3945H101.234ZM83.7962 39.2627H95.4945V41.7061H86.5824V44.4482H94.4749V46.7422H86.5824V50.5654H95.679V53H83.7962V39.2627Z" fill="black"/>
<path d="M37.8335 88.6253L65.4648 64H91.633C91.633 64 132.56 65.2486 112.793 76.3859C93.0251 87.5232 114.129 94.9148 114.129 94.9148C114.129 94.9148 91.633 109.199 67.9675 99.2599C44.3019 89.3212 17.3511 106.951 17.3511 106.951L37.8335 88.6253Z" fill="#C86B85"/>
<path d="M8.39111 35.5422C8.39111 35.5422 31.8632 17.8773 38.2647 37.4537C44.6662 57.0302 64 35.5422 64 35.5422V50.579L8.39111 92.2283V35.5422Z" fill="#3A3845"/>
</svg>
